<svg width="24" height="24" viewBox="0 0 24 24" fill="none" xmlns="http://www.w3.org/2000/svg">
<path d="M2.99999 11.6193V19.9993L3.57999 10.1893C3.39343 10.3774 3.24609 10.6007 3.14652 10.8461C3.04695 11.0916 2.99715 11.3544 2.99999 11.6193ZM4.1158 10.7129L11.8232 2.82556C11.8463 2.80267 11.8735 2.78447 11.9035 2.77198C11.9341 2.75924 11.9669 2.75269 12 2.75269C12.0331 2.75269 12.0659 2.75924 12.0965 2.77198C12.1265 2.78449 12.1538 2.80273 12.1769 2.82567C12.1773 2.82608 12.1777 2.82648 12.1781 2.82689L19.8808 10.6994C19.8813 10.7 19.8819 10.7006 19.8824 10.7011C20.1193 10.9476 20.2514 11.2763 20.2508 11.6182V11.6193L20.2508 19.9993L20.2508 20.0005C20.2513 20.3206 20.129 20.6288 19.9091 20.8615C19.6934 21.0898 19.3998 21.2284 19.087 21.2502H4.91303C4.60014 21.2284 4.30659 21.0898 4.09086 20.8615C3.87096 20.6288 3.74865 20.3206 3.74914 20.0005V19.9993V11.6193H3.74918L3.7491 11.6113C3.74732 11.4456 3.77847 11.2812 3.84074 11.1277C3.90301 10.9742 3.99516 10.8346 4.11184 10.7169L4.11186 10.7169L4.1158 10.7129ZM21 11.6193C21.0008 11.0823 20.7928 10.5659 20.42 10.1793L19.11 21.9993C19.6211 21.9712 20.102 21.7481 20.4536 21.376C20.8052 21.004 21.0008 20.5113 21 19.9993V11.6193ZM9.25085 19.9993V20.7485H9.99999H14H14.7491V19.9993V13.9993V13.2502H14H9.99999H9.25085V13.9993V19.9993ZM19 20.7485H19.7491V19.9993V11.6193V11.3149L19.5368 11.0968L12.5368 3.90675L12.0015 3.35695L11.4647 3.90526L4.46468 11.0553L4.25085 11.2737V11.5793V19.9993V20.7485H4.99999H7.99999H8.74914V19.9993V12.9993C8.74914 12.9328 8.77557 12.869 8.82261 12.822C8.86966 12.7749 8.93346 12.7485 8.99999 12.7485H15C15.0665 12.7485 15.1303 12.7749 15.1774 12.822C15.2244 12.869 15.2508 12.9328 15.2508 12.9993V19.9993V20.7485H16H19Z" fill="white" stroke="white" stroke-width="1.49829"/>
</svg>
