<svg width="16" height="16" viewBox="0 0 16 16" fill="none" xmlns="http://www.w3.org/2000/svg">
<path d="M4.33331 1.33228V5.33228" stroke="white" stroke-width="1.2" stroke-miterlimit="10" stroke-linecap="round" stroke-linejoin="round"/>
<path d="M4.33331 12.0011V14.6677" stroke="white" stroke-width="1.2" stroke-miterlimit="10" stroke-linecap="round" stroke-linejoin="round"/>
<path d="M6.66667 9.33439C6.66667 8.04573 5.622 7.00106 4.33333 7.00106C3.04467 7.00106 2 8.04573 2 9.33439C2 10.6231 3.04467 11.6677 4.33333 11.6677C5.622 11.6677 6.66667 10.6231 6.66667 9.33439Z" stroke="white" stroke-width="1.2" stroke-miterlimit="10" stroke-linecap="round" stroke-linejoin="round"/>
<path d="M11.6667 1.33333V4" stroke="white" stroke-width="1.2" stroke-miterlimit="10" stroke-linecap="round" stroke-linejoin="round"/>
<path d="M11.6667 10.6677V14.6677" stroke="white" stroke-width="1.2" stroke-miterlimit="10" stroke-linecap="round" stroke-linejoin="round"/>
<path d="M14 6.66667C14 5.378 12.9553 4.33333 11.6666 4.33333C10.378 4.33333 9.33331 5.378 9.33331 6.66667C9.33331 7.95533 10.378 9 11.6666 9C12.9553 9 14 7.95533 14 6.66667Z" stroke="white" stroke-width="1.2" stroke-miterlimit="10" stroke-linecap="round" stroke-linejoin="round"/>
</svg>
